<svg width="9" height="11" viewBox="0 0 9 11" fill="none" xmlns="http://www.w3.org/2000/svg">
<path d="M4.84065 0.700874L8.28482 4.14504C8.4274 4.28762 8.4274 4.51907 8.28482 4.66166C8.14223 4.80425 7.91078 4.80425 7.76819 4.66166L4.94778 1.84125L4.94778 9.91435C4.94778 10.0149 4.90712 10.1065 4.84099 10.1727C4.77486 10.2388 4.68359 10.2798 4.58268 10.2794C4.38085 10.2794 4.21724 10.1158 4.21724 9.91401L4.21724 1.84091L1.39649 4.66166C1.2539 4.80425 1.02245 4.80425 0.879864 4.66166C0.737276 4.51907 0.737275 4.28763 0.879864 4.14504L4.32403 0.700874C4.35778 0.667121 4.39815 0.6406 4.44292 0.622001C4.53213 0.585149 4.6327 0.585149 4.72259 0.622001C4.76668 0.6406 4.8069 0.667121 4.84065 0.700874Z" fill="#011C2C"/>
</svg>
