<svg width="18" height="17" viewBox="0 0 18 17" fill="none" xmlns="http://www.w3.org/2000/svg">
<path d="M9.0459 0.0629883C4.5999 0.0629883 0.983398 3.67949 0.983398 8.12549C0.983398 12.5715 4.5999 16.188 9.0459 16.188C13.4919 16.188 17.1084 12.5715 17.1084 8.12549C17.1084 3.67949 13.4919 0.0629883 9.0459 0.0629883ZM9.0459 15.063C5.22015 15.063 2.1084 11.9512 2.1084 8.12549C2.1084 4.29974 5.22015 1.18799 9.0459 1.18799C12.8716 1.18799 15.9834 4.29974 15.9834 8.12549C15.9834 11.9512 12.8716 15.063 9.0459 15.063ZM12.5648 8.34082C12.5363 8.40982 12.4952 8.47199 12.4434 8.52374L10.1934 10.7737C10.0839 10.8832 9.9399 10.9387 9.7959 10.9387C9.6519 10.9387 9.50788 10.884 9.39838 10.7737C9.17863 10.554 9.17863 10.1977 9.39838 9.97797L10.6884 8.68799H6.0459C5.7354 8.68799 5.4834 8.43599 5.4834 8.12549C5.4834 7.81499 5.7354 7.56299 6.0459 7.56299H10.6876L9.39764 6.27301C9.17789 6.05326 9.17789 5.69698 9.39764 5.47723C9.61739 5.25748 9.97367 5.25748 10.1934 5.47723L12.4434 7.72723C12.4952 7.77898 12.5363 7.84116 12.5648 7.91016C12.6218 8.04816 12.6218 8.20282 12.5648 8.34082Z" fill="black"/>
</svg>
