<svg width="19" height="19" viewBox="0 0 19 19" fill="none" xmlns="http://www.w3.org/2000/svg">
<path d="M9.0459 1.06299C4.5999 1.06299 0.983398 4.67949 0.983398 9.12549C0.983398 13.5715 4.5999 17.188 9.0459 17.188C13.4919 17.188 17.1084 13.5715 17.1084 9.12549C17.1084 4.67949 13.4919 1.06299 9.0459 1.06299ZM9.0459 16.063C5.22015 16.063 2.1084 12.9512 2.1084 9.12549C2.1084 5.29974 5.22015 2.18799 9.0459 2.18799C12.8716 2.18799 15.9834 5.29974 15.9834 9.12549C15.9834 12.9512 12.8716 16.063 9.0459 16.063ZM12.5648 9.34082C12.5363 9.40982 12.4952 9.47199 12.4434 9.52374L10.1934 11.7737C10.0839 11.8832 9.9399 11.9387 9.7959 11.9387C9.6519 11.9387 9.50788 11.884 9.39838 11.7737C9.17863 11.554 9.17863 11.1977 9.39838 10.978L10.6884 9.68799H6.0459C5.7354 9.68799 5.4834 9.43599 5.4834 9.12549C5.4834 8.81499 5.7354 8.56299 6.0459 8.56299H10.6876L9.39764 7.27301C9.17789 7.05326 9.17789 6.69698 9.39764 6.47723C9.61739 6.25748 9.97367 6.25748 10.1934 6.47723L12.4434 8.72723C12.4952 8.77898 12.5363 8.84116 12.5648 8.91016C12.6218 9.04816 12.6218 9.20282 12.5648 9.34082Z" fill="white"/>
</svg>
