<svg width="8" height="8" viewBox="0 0 8 8" fill="none" xmlns="http://www.w3.org/2000/svg">
<path d="M7.82278 0.365309V5.23609C7.82278 5.43774 7.65912 5.6014 7.45747 5.6014C7.25582 5.6014 7.09216 5.43774 7.09216 5.23609V1.24742L1.38362 6.95597C1.31251 7.02708 1.21897 7.06311 1.12546 7.06311C1.03194 7.06311 0.938403 7.02757 0.867289 6.95597C0.724575 6.81325 0.724575 6.58187 0.867289 6.43916L6.57583 0.730617H2.58669C2.38504 0.730617 2.22138 0.566959 2.22138 0.365309C2.22138 0.163658 2.38504 0 2.58669 0H7.45747C7.50521 0 7.55251 0.00979294 7.59732 0.0283019C7.68645 0.0653199 7.75757 0.136436 7.79507 0.226059C7.8131 0.270383 7.82278 0.317575 7.82278 0.365309Z" fill="white"/>
</svg>
