<svg width="34" height="35" viewBox="0 0 34 35" fill="none" xmlns="http://www.w3.org/2000/svg">
<path d="M9.93345 31.5291C9.04095 31.5291 8.14559 31.2981 7.32251 30.8377C5.61968 29.8843 4.604 28.1517 4.604 26.2038V9.22108C4.604 7.27317 5.61968 5.542 7.32251 4.58717C9.03101 3.6295 11.0455 3.66917 12.7158 4.69058L26.9902 13.4258C28.4961 14.3466 29.3957 15.9501 29.3957 17.7124C29.3957 19.4748 28.4961 21.0768 26.9902 21.9991L12.7158 30.7343C11.8502 31.2627 10.8925 31.5291 9.93345 31.5291ZM9.93345 6.02494C9.39512 6.02494 8.85677 6.16369 8.36236 6.44136C7.33952 7.01369 6.73039 8.05375 6.73039 9.22108V26.2038C6.73039 27.3711 7.34094 28.4112 8.36236 28.9835C9.38802 29.5587 10.6007 29.5375 11.6066 28.9226L25.881 20.1875C26.7508 19.6548 27.2707 18.7296 27.2707 17.7124C27.2707 16.6953 26.7508 15.7701 25.881 15.2374L11.6066 6.50223C11.0852 6.1849 10.51 6.02494 9.93345 6.02494Z" fill="white"/>
</svg>
