<svg width="33" height="33" viewBox="0 0 33 33" fill="none" xmlns="http://www.w3.org/2000/svg">
<path d="M28.5884 16.9901V6.89014C28.5884 6.62492 28.483 6.37057 28.2955 6.18303C28.108 5.99549 27.8536 5.89014 27.5884 5.89014C27.3232 5.89014 27.0688 5.99549 26.8813 6.18303C26.6937 6.37057 26.5884 6.62492 26.5884 6.89014V16.8901H6.58838V6.89014C6.58838 6.62492 6.48302 6.37057 6.29549 6.18303C6.10795 5.99549 5.8536 5.89014 5.58838 5.89014C5.32316 5.89014 5.06881 5.99549 4.88127 6.18303C4.69374 6.37057 4.58838 6.62492 4.58838 6.89014V16.9901C4.01496 17.1423 3.50794 17.4798 3.14622 17.95C2.7845 18.4202 2.58838 18.9969 2.58838 19.5901V26.1901C2.58838 26.9062 2.87284 27.593 3.37919 28.0993C3.88554 28.6057 4.57229 28.8901 5.28838 28.8901H27.8884C28.6045 28.8901 29.2912 28.6057 29.7976 28.0993C30.3039 27.593 30.5884 26.9062 30.5884 26.1901V19.5901C30.5884 18.9969 30.3923 18.4202 30.0305 17.95C29.6688 17.4798 29.1618 17.1423 28.5884 16.9901ZM28.5884 26.1901C28.5884 26.3758 28.5146 26.5538 28.3834 26.6851C28.2521 26.8164 28.074 26.8901 27.8884 26.8901H5.28838C5.10273 26.8901 4.92468 26.8164 4.7934 26.6851C4.66213 26.5538 4.58838 26.3758 4.58838 26.1901V19.5901C4.58838 19.4045 4.66213 19.2264 4.7934 19.0952C4.92468 18.9639 5.10273 18.8901 5.28838 18.8901H27.8884C28.074 18.8901 28.2521 18.9639 28.3834 19.0952C28.5146 19.2264 28.5884 19.4045 28.5884 19.5901V26.1901Z" fill="black"/>
<path d="M23.5884 19.8901C22.995 19.8901 22.415 20.0661 21.9217 20.3957C21.4283 20.7254 21.0438 21.1939 20.8167 21.7421C20.5897 22.2903 20.5303 22.8935 20.646 23.4754C20.7618 24.0574 21.0475 24.5919 21.4671 25.0115C21.8866 25.431 22.4212 25.7167 23.0031 25.8325C23.5851 25.9482 24.1883 25.8888 24.7364 25.6618C25.2846 25.4347 25.7531 25.0502 26.0828 24.5568C26.4124 24.0635 26.5884 23.4835 26.5884 22.8901C26.5884 22.0945 26.2723 21.3314 25.7097 20.7688C25.1471 20.2062 24.384 19.8901 23.5884 19.8901ZM23.5884 23.8901C23.3906 23.8901 23.1973 23.8315 23.0328 23.7216C22.8684 23.6117 22.7402 23.4555 22.6645 23.2728C22.5888 23.0901 22.569 22.889 22.6076 22.695C22.6462 22.5011 22.7414 22.3229 22.8813 22.183C23.0211 22.0432 23.1993 21.9479 23.3933 21.9094C23.5873 21.8708 23.7883 21.8906 23.9711 21.9663C24.1538 22.0419 24.31 22.1701 24.4199 22.3346C24.5297 22.499 24.5884 22.6924 24.5884 22.8901C24.5884 23.1554 24.483 23.4097 24.2955 23.5972C24.108 23.7848 23.8536 23.8901 23.5884 23.8901Z" fill="black"/>
<path d="M9.58838 21.8901H7.58838C7.32316 21.8901 7.06881 21.9955 6.88127 22.183C6.69374 22.3706 6.58838 22.6249 6.58838 22.8901C6.58838 23.1554 6.69374 23.4097 6.88127 23.5972C7.06881 23.7848 7.32316 23.8901 7.58838 23.8901H9.58838C9.8536 23.8901 10.1079 23.7848 10.2955 23.5972C10.483 23.4097 10.5884 23.1554 10.5884 22.8901C10.5884 22.6249 10.483 22.3706 10.2955 22.183C10.1079 21.9955 9.8536 21.8901 9.58838 21.8901Z" fill="black"/>
<path d="M14.5884 21.8901H12.5884C12.3232 21.8901 12.0688 21.9955 11.8813 22.183C11.6937 22.3706 11.5884 22.6249 11.5884 22.8901C11.5884 23.1554 11.6937 23.4097 11.8813 23.5972C12.0688 23.7848 12.3232 23.8901 12.5884 23.8901H14.5884C14.8536 23.8901 15.1079 23.7848 15.2955 23.5972C15.483 23.4097 15.5884 23.1554 15.5884 22.8901C15.5884 22.6249 15.483 22.3706 15.2955 22.183C15.1079 21.9955 14.8536 21.8901 14.5884 21.8901Z" fill="black"/>
</svg>
