<svg width="33" height="33" viewBox="0 0 33 33" fill="none" xmlns="http://www.w3.org/2000/svg">
<path d="M29.7084 12.2242C29.7829 11.5706 29.6667 10.9094 29.374 10.3203C29.0812 9.73125 28.6243 9.23943 28.0584 8.90415C27.5568 8.63255 26.9866 8.51432 26.4184 8.56415C26.1892 7.64503 25.7152 6.80521 25.0468 6.13403C24.3783 5.46286 23.5404 4.98544 22.6222 4.75256C21.7041 4.51968 20.7399 4.54005 19.8324 4.8115C18.9249 5.08296 18.1079 5.59534 17.4684 6.29415C16.8786 5.90291 16.1735 5.72313 15.4684 5.78415C14.9211 5.84125 14.3973 6.03636 13.9461 6.35119C13.4948 6.66602 13.1309 7.09026 12.8884 7.58415C12.2665 7.50346 11.6349 7.61513 11.0784 7.90415C10.579 8.19945 10.1664 8.62116 9.88194 9.12678C9.59753 9.6324 9.45143 10.2041 9.45838 10.7842H8.96838C8.59023 10.7848 8.21773 10.8759 7.88197 11.0498C7.54622 11.2238 7.25697 11.4756 7.03838 11.7842H4.76838C4.19102 11.7868 3.63805 12.0173 3.22979 12.4256C2.82153 12.8338 2.59101 13.3868 2.58838 13.9642V19.6941C2.59046 20.9409 2.97514 22.157 3.69048 23.1782C4.40582 24.1993 5.41733 24.9763 6.58838 25.4042V25.7842C6.58838 26.5798 6.90445 27.3429 7.46706 27.9055C8.02967 28.4681 8.79273 28.7842 9.58838 28.7842C10.384 28.7842 11.1471 28.4681 11.7097 27.9055C12.2723 27.3429 12.5884 26.5798 12.5884 25.7842H20.5884C20.5884 26.5798 20.9044 27.3429 21.4671 27.9055C22.0297 28.4681 22.7927 28.7842 23.5884 28.7842C24.384 28.7842 25.1471 28.4681 25.7097 27.9055C26.2723 27.3429 26.5884 26.5798 26.5884 25.7842V25.4042C27.7594 24.9763 28.7709 24.1993 29.4863 23.1782C30.2016 22.157 30.5863 20.9409 30.5884 19.6941V13.9642C30.5892 13.6253 30.5099 13.291 30.357 12.9887C30.204 12.6863 29.9818 12.4243 29.7084 12.2242ZM12.0584 9.66415C12.235 9.58706 12.4257 9.54727 12.6184 9.54727C12.8111 9.54727 13.0017 9.58706 13.1784 9.66415C13.3167 9.73286 13.469 9.76862 13.6234 9.76862C13.7778 9.76862 13.9301 9.73286 14.0684 9.66415C14.2071 9.59033 14.3265 9.48487 14.4168 9.3563C14.5072 9.22773 14.5659 9.07968 14.5884 8.92415C14.6162 8.64116 14.7375 8.3755 14.933 8.16907C15.1286 7.96265 15.3873 7.82722 15.6684 7.78415C15.8855 7.77538 16.1011 7.82333 16.294 7.92328C16.4869 8.02324 16.6504 8.17174 16.7684 8.35415C16.8647 8.49092 16.9939 8.60132 17.144 8.67525C17.2941 8.74917 17.4603 8.78426 17.6275 8.7773C17.7946 8.77033 17.9574 8.72154 18.1008 8.63538C18.2442 8.54922 18.3637 8.42846 18.4484 8.28415C18.8296 7.64181 19.4146 7.1453 20.1103 6.87352C20.8061 6.60174 21.5727 6.57029 22.2884 6.78415C22.9322 6.98963 23.4976 7.38723 23.9088 7.92352C24.3199 8.45981 24.5571 9.10911 24.5884 9.78415C24.5952 9.94753 24.642 10.1067 24.7246 10.2478C24.8073 10.3889 24.9232 10.5076 25.0624 10.5935C25.2016 10.6794 25.3597 10.7298 25.5228 10.7404C25.686 10.7509 25.8493 10.7213 25.9984 10.6542C26.175 10.5771 26.3657 10.5373 26.5584 10.5373C26.7511 10.5373 26.9417 10.5771 27.1184 10.6542C27.3033 10.7766 27.4548 10.943 27.5596 11.1385C27.6643 11.334 27.7189 11.5524 27.7184 11.7742H16.1384C15.9208 11.467 15.6331 11.216 15.2992 11.0421C14.9653 10.8682 14.5948 10.7764 14.2184 10.7742H11.4584C11.4596 10.5541 11.5149 10.3377 11.6196 10.1441C11.7242 9.95052 11.8749 9.78568 12.0584 9.66415ZM8.96838 12.7842H14.2184C14.3174 12.7868 14.4115 12.8279 14.4806 12.8989C14.5498 12.9699 14.5884 13.0651 14.5884 13.1642V17.7842H8.58838V13.1642C8.58838 13.1142 8.59821 13.0648 8.6173 13.0187C8.6364 12.9726 8.66439 12.9307 8.69968 12.8954C8.73496 12.8602 8.77685 12.8322 8.82296 12.8131C8.86906 12.794 8.91848 12.7842 8.96838 12.7842ZM9.58838 26.7842C9.32316 26.7842 9.06881 26.6788 8.88127 26.4913C8.69374 26.3037 8.58838 26.0494 8.58838 25.7842H10.5884C10.5884 26.0494 10.483 26.3037 10.2955 26.4913C10.1079 26.6788 9.8536 26.7842 9.58838 26.7842ZM24.5884 25.7842C24.5884 26.0494 24.483 26.3037 24.2955 26.4913C24.108 26.6788 23.8536 26.7842 23.5884 26.7842C23.3232 26.7842 23.0688 26.6788 22.8813 26.4913C22.6937 26.3037 22.5884 26.0494 22.5884 25.7842H24.5884ZM28.5884 19.6941C28.5884 20.7789 28.1575 21.8192 27.3904 22.5862C26.6234 23.3532 25.5831 23.7842 24.4984 23.7842H8.67838C7.59364 23.7842 6.55334 23.3532 5.78631 22.5862C5.01929 21.8192 4.58838 20.7789 4.58838 19.6941V13.9642C4.58838 13.9164 4.60734 13.8706 4.6411 13.8369C4.67486 13.8031 4.72064 13.7842 4.76838 13.7842H6.58838V18.7842C6.58838 19.0494 6.69374 19.3037 6.88127 19.4913C7.06881 19.6788 7.32316 19.7842 7.58838 19.7842H15.5884C15.8536 19.7842 16.1079 19.6788 16.2955 19.4913C16.483 19.3037 16.5884 19.0494 16.5884 18.7842V13.7842H28.4084C28.4561 13.7842 28.5019 13.8031 28.5357 13.8369C28.5694 13.8706 28.5884 13.9164 28.5884 13.9642V19.6941Z" fill="black"/>
</svg>
