<svg width="33" height="33" viewBox="0 0 33 33" fill="none" xmlns="http://www.w3.org/2000/svg">
<path d="M29.9784 19.6398C29.7963 19.5632 29.5956 19.5423 29.4016 19.5797C29.2076 19.6171 29.029 19.7111 28.8884 19.8498C28.4967 20.2361 27.9925 20.4882 27.4484 20.5698C27.1619 20.6127 26.8697 20.5991 26.5884 20.5298V5.02981C26.589 4.40983 26.3593 3.81174 25.9437 3.35164C25.5282 2.89154 24.9565 2.60226 24.3396 2.53996C23.7228 2.47765 23.1048 2.64676 22.6057 3.01447C22.1065 3.38217 21.7618 3.92223 21.6384 4.52981H11.5884C11.5221 3.86677 11.1951 3.25722 10.6794 2.83527C10.1637 2.41331 9.50144 2.21351 8.8384 2.27981C8.17536 2.34611 7.56581 2.6731 7.14385 3.18882C6.7219 3.70455 6.52209 4.36677 6.5884 5.02981V20.5298H6.4484C6.05552 20.5705 5.65849 20.5264 5.28413 20.4004C4.90977 20.2745 4.56681 20.0697 4.2784 19.7998C4.13634 19.6644 3.95756 19.5737 3.76434 19.5392C3.57113 19.5047 3.37202 19.5278 3.19184 19.6056C3.01165 19.6834 2.85836 19.8126 2.75105 19.9769C2.64375 20.1412 2.58718 20.3335 2.5884 20.5298V29.5298C2.5884 29.795 2.69375 30.0494 2.88129 30.2369C3.06883 30.4245 3.32318 30.5298 3.5884 30.5298H29.5884C29.8536 30.5298 30.108 30.4245 30.2955 30.2369C30.483 30.0494 30.5884 29.795 30.5884 29.5298V20.5298C30.5825 20.3387 30.5218 20.1532 30.4137 19.9955C30.3056 19.8377 30.1545 19.7143 29.9784 19.6398ZM23.5884 5.02981C23.5884 4.8972 23.6411 4.77003 23.7348 4.67626C23.8286 4.58249 23.9558 4.52981 24.0884 4.52981C24.221 4.52981 24.3482 4.58249 24.442 4.67626C24.5357 4.77003 24.5884 4.8972 24.5884 5.02981V19.2998C24.2789 19.0815 23.9428 18.9034 23.5884 18.7698C23.5988 18.6901 23.5988 18.6095 23.5884 18.5298V5.02981ZM11.5884 14.5298H21.5884V15.5298H11.5884V14.5298ZM21.5884 12.5298H11.5884V9.52981H21.5884V12.5298ZM11.5884 18.5298V17.5298H21.5884V18.5298C21.5884 18.5298 21.5884 18.5298 21.5884 18.5798C20.606 18.7163 19.685 19.1369 18.9384 19.7898C18.2543 20.2881 17.4297 20.5565 16.5834 20.5565C15.7371 20.5565 14.9125 20.2881 14.2284 19.7898C13.5458 19.1208 12.6722 18.6805 11.7284 18.5298H11.5884ZM21.5884 7.52981H11.5884V6.52981H21.5884V7.52981ZM9.0884 4.52981C9.22101 4.52981 9.34818 4.58249 9.44195 4.67626C9.53572 4.77003 9.5884 4.8972 9.5884 5.02981V18.5298C9.59444 18.6182 9.61123 18.7055 9.6384 18.7898C9.26969 18.9225 8.91739 19.0969 8.5884 19.3098V5.02981C8.5884 4.8972 8.64108 4.77003 8.73484 4.67626C8.82861 4.58249 8.95579 4.52981 9.0884 4.52981ZM6.7284 22.5298C7.68975 22.3884 8.58205 21.9475 9.2784 21.2698C9.56595 20.9982 9.90853 20.7915 10.2829 20.6638C10.6573 20.5361 11.0548 20.4904 11.4484 20.5298C11.9937 20.6142 12.498 20.8698 12.8884 21.2598C12.9171 21.2918 12.9509 21.3188 12.9884 21.3398C14.027 22.1187 15.2902 22.5398 16.5884 22.5398C17.8866 22.5398 19.1498 22.1187 20.1884 21.3398L20.2784 21.2698C20.5667 20.9993 20.9094 20.7933 21.2836 20.6657C21.6578 20.5381 22.0549 20.4918 22.4484 20.5298C22.9983 20.6156 23.5063 20.8749 23.8984 21.2698C24.4087 21.7428 25.015 22.1002 25.6759 22.3176C26.3369 22.5351 27.0369 22.6074 27.7284 22.5298C28.0224 22.4942 28.3111 22.4237 28.5884 22.3198V24.0798C28.2512 24.3249 27.8604 24.4861 27.4484 24.5498C27.0579 24.5903 26.6632 24.5471 26.2907 24.4229C25.9182 24.2988 25.5765 24.0966 25.2884 23.8298C24.5944 23.1362 23.6979 22.6809 22.7284 22.5298C22.0479 22.4542 21.3591 22.5239 20.7075 22.7342C20.0559 22.9445 19.4563 23.2907 18.9484 23.7498C18.2643 24.2481 17.4397 24.5166 16.5934 24.5166C15.747 24.5166 14.9225 24.2481 14.2384 23.7498C13.5479 23.0936 12.671 22.6674 11.7284 22.5298C11.031 22.4599 10.3268 22.5417 9.66394 22.7696C9.00112 22.9974 8.39543 23.3659 7.8884 23.8498C7.49134 24.2215 6.98771 24.4593 6.4484 24.5298C5.79384 24.6197 5.12948 24.459 4.5884 24.0798V22.3198C5.27375 22.5641 6.00863 22.6362 6.7284 22.5298ZM4.5884 28.5298V26.3098C5.27282 26.5579 6.00782 26.6334 6.7284 26.5298C7.68975 26.3884 8.58205 25.9475 9.2784 25.2698C9.56595 24.9982 9.90853 24.7915 10.2829 24.6638C10.6573 24.5361 11.0548 24.4904 11.4484 24.5298C11.9937 24.6142 12.498 24.8698 12.8884 25.2598C12.9171 25.2918 12.9509 25.3188 12.9884 25.3398C14.027 26.1187 15.2902 26.5398 16.5884 26.5398C17.8866 26.5398 19.1498 26.1187 20.1884 25.3398L20.2784 25.2698C20.5667 24.9993 20.9094 24.7933 21.2836 24.6657C21.6578 24.5381 22.0549 24.4918 22.4484 24.5298C22.9983 24.6156 23.5063 24.8749 23.8984 25.2698C24.7845 26.0761 25.9308 26.5375 27.1284 26.5698C27.3281 26.584 27.5287 26.584 27.7284 26.5698C28.0215 26.5294 28.3097 26.459 28.5884 26.3598V28.5298H4.5884Z" fill="black"/>
</svg>
