<svg width="33" height="33" viewBox="0 0 33 33" fill="none" xmlns="http://www.w3.org/2000/svg">
<path d="M27.1783 2.97417C27.0501 2.88125 26.9017 2.8201 26.7452 2.79576C26.5887 2.77142 26.4287 2.78458 26.2783 2.83417C25.467 3.09396 24.7012 3.47857 24.0083 3.97417C20.1383 6.78417 19.7683 12.1242 19.5883 14.7142C19.5383 15.4542 19.5283 16.1942 19.5883 16.9142C19.6089 17.7329 19.9416 18.5127 20.5183 19.0942L21.5883 20.1942V27.7842C21.5883 28.5798 21.9044 29.3429 22.467 29.9055C23.0296 30.4681 23.7927 30.7842 24.5883 30.7842C25.384 30.7842 26.147 30.4681 26.7097 29.9055C27.2723 29.3429 27.5883 28.5798 27.5883 27.7842V3.78417C27.5887 3.62639 27.5518 3.47074 27.4805 3.32997C27.4093 3.18919 27.3057 3.06727 27.1783 2.97417ZM25.5883 27.7842C25.5883 28.0494 25.483 28.3037 25.2954 28.4913C25.1079 28.6788 24.8535 28.7842 24.5883 28.7842C24.3231 28.7842 24.0688 28.6788 23.8812 28.4913C23.6937 28.3037 23.5883 28.0494 23.5883 27.7842V19.7842C23.5891 19.6526 23.5639 19.5221 23.5141 19.4003C23.4643 19.2784 23.391 19.1676 23.2983 19.0742L21.8983 17.6742C21.7888 17.5673 21.7015 17.4399 21.6414 17.2991C21.5813 17.1584 21.5497 17.0072 21.5483 16.8542C21.5135 16.188 21.5135 15.5204 21.5483 14.8542C21.6983 12.5642 22.0283 7.85417 25.1283 5.59417L25.5883 5.32417V27.7842Z" fill="black"/>
<path d="M11.5884 2.78418C8.27839 2.78418 5.58839 6.05418 5.58839 10.0642C5.55138 11.2772 5.80426 12.4815 6.32601 13.5772C6.84777 14.6729 7.62336 15.6283 8.58839 16.3642V28.2142C8.61962 28.9799 8.95271 29.7022 9.51485 30.2231C10.077 30.744 10.8225 31.0212 11.5884 30.9942C12.3543 31.0212 13.0998 30.744 13.6619 30.2231C14.2241 29.7022 14.5572 28.9799 14.5884 28.2142V16.3642C15.548 15.6234 16.3196 14.667 16.8408 13.5725C17.362 12.478 17.6181 11.2761 17.5884 10.0642C17.5884 6.05418 14.8984 2.78418 11.5884 2.78418ZM13.2684 14.8442C13.0714 14.9107 12.9 15.037 12.7781 15.2055C12.6563 15.374 12.5899 15.5762 12.5884 15.7842V28.2142C12.5513 28.4466 12.4275 28.6563 12.242 28.8011C12.0564 28.9458 11.8228 29.0148 11.5884 28.9942C11.3539 29.0148 11.1204 28.9458 10.9348 28.8011C10.7492 28.6563 10.6254 28.4466 10.5884 28.2142V15.7842C10.5861 15.575 10.5184 15.3718 10.3946 15.2032C10.2708 15.0346 10.0973 14.909 9.89839 14.8442C9.14928 14.2995 8.5464 13.5781 8.14339 12.7441C7.74038 11.9102 7.54972 10.9896 7.58839 10.0642C7.58839 7.15418 9.37839 4.78418 11.5884 4.78418C13.7984 4.78418 15.5884 7.15418 15.5884 10.0642C15.6286 10.9909 15.4376 11.913 15.0326 12.7474C14.6276 13.5819 14.0213 14.3025 13.2684 14.8442Z" fill="black"/>
</svg>
