<svg width="33" height="33" viewBox="0 0 33 33" fill="none" xmlns="http://www.w3.org/2000/svg">
<path d="M24.9684 21.0942L20.5884 20.0042V18.7842C20.5809 18.7058 20.5641 18.6286 20.5384 18.5542C21.3417 18.0104 22.0232 17.3055 22.5396 16.4844C23.056 15.6632 23.3962 14.7437 23.5384 13.7842H24.1184C24.7815 13.7842 25.4174 13.5208 25.8862 13.0519C26.355 12.5831 26.6184 11.9472 26.6184 11.2842C26.6184 10.6211 26.355 9.98525 25.8862 9.51641C25.4174 9.04757 24.7815 8.78418 24.1184 8.78418H23.5884V3.78418C23.5884 3.51896 23.4831 3.26461 23.2955 3.07707C23.108 2.88954 22.8536 2.78418 22.5884 2.78418H10.5884C10.3232 2.78418 10.0689 2.88954 9.88132 3.07707C9.69378 3.26461 9.58843 3.51896 9.58843 3.78418V8.78418H9.08843C8.42539 8.78418 7.7895 9.04757 7.32066 9.51641C6.85182 9.98525 6.58843 10.6211 6.58843 11.2842C6.58843 11.9472 6.85182 12.5831 7.32066 13.0519C7.7895 13.5208 8.42539 13.7842 9.08843 13.7842H9.66843C9.81068 14.7437 10.1508 15.6632 10.6673 16.4844C11.1837 17.3055 11.8652 18.0104 12.6684 18.5542C12.6325 18.6273 12.6056 18.7045 12.5884 18.7842V20.0042L8.20843 21.0942C7.16555 21.355 6.24103 21.9597 5.5842 22.8107C4.92736 23.6617 4.57655 24.7093 4.58843 25.7842V29.7842C4.58843 30.0494 4.69378 30.3038 4.88132 30.4913C5.06886 30.6788 5.32321 30.7842 5.58843 30.7842H27.5884C27.8536 30.7842 28.108 30.6788 28.2955 30.4913C28.4831 30.3038 28.5884 30.0494 28.5884 29.7842V25.7842C28.6003 24.7093 28.2495 23.6617 27.5927 22.8107C26.9358 21.9597 26.0113 21.355 24.9684 21.0942ZM24.0884 10.7842C24.221 10.7842 24.3482 10.8369 24.442 10.9306C24.5357 11.0244 24.5884 11.1516 24.5884 11.2842C24.5884 11.4168 24.5357 11.544 24.442 11.6377C24.3482 11.7315 24.221 11.7842 24.0884 11.7842H23.5884V10.7842H24.0884ZM11.5884 4.78418H21.5884V7.78418H11.5884V4.78418ZM8.58843 11.2842C8.58843 11.1516 8.6411 11.0244 8.73487 10.9306C8.82864 10.8369 8.95582 10.7842 9.08843 10.7842H9.58843V11.7842H9.08843C8.95582 11.7842 8.82864 11.7315 8.73487 11.6377C8.6411 11.544 8.58843 11.4168 8.58843 11.2842ZM11.5884 12.7842V9.78418H21.5884V12.7842C21.5884 14.1103 21.0616 15.382 20.124 16.3197C19.1863 17.2574 17.9145 17.7842 16.5884 17.7842C15.2623 17.7842 13.9906 17.2574 13.0529 16.3197C12.1152 15.382 11.5884 14.1103 11.5884 12.7842ZM16.5884 19.7842C17.2653 19.7811 17.9385 19.6835 18.5884 19.4942V20.5442L17.9684 21.7842H15.2084L14.5884 20.5442V19.4942C15.2383 19.6835 15.9115 19.7811 16.5884 19.7842ZM6.58843 25.7842C6.58569 25.164 6.79114 24.5609 7.17189 24.0713C7.55265 23.5818 8.08666 23.2342 8.68843 23.0842L13.0484 21.9942L13.5884 23.0242V28.7842H6.58843V25.7842ZM26.5884 28.7842H15.5884V23.7842H18.5884C18.7731 23.7836 18.954 23.7319 19.1111 23.6349C19.2682 23.5378 19.3953 23.3991 19.4784 23.2342L20.1284 21.9442L24.4884 23.0342C25.0986 23.1861 25.639 23.5412 26.0206 24.041C26.4023 24.5407 26.6025 25.1555 26.5884 25.7842V28.7842Z" fill="black"/>
<path d="M18.5884 25.7842H17.5884C17.3232 25.7842 17.0688 25.8895 16.8813 26.0771C16.6937 26.2646 16.5884 26.519 16.5884 26.7842C16.5884 27.0494 16.6937 27.3038 16.8813 27.4913C17.0688 27.6788 17.3232 27.7842 17.5884 27.7842H18.5884C18.8536 27.7842 19.1079 27.6788 19.2955 27.4913C19.483 27.3038 19.5884 27.0494 19.5884 26.7842C19.5884 26.519 19.483 26.2646 19.2955 26.0771C19.1079 25.8895 18.8536 25.7842 18.5884 25.7842Z" fill="black"/>
</svg>
