<svg width="29" height="29" viewBox="0 0 29 29" fill="none" xmlns="http://www.w3.org/2000/svg">
<path d="M26.0381 0.209473H3.13813C2.46264 0.212106 1.81557 0.481612 1.33792 0.95926C0.860274 1.43691 0.590768 2.08398 0.588135 2.75947V25.6595C0.590768 26.335 0.860274 26.982 1.33792 27.4597C1.81557 27.9373 2.46264 28.2068 3.13813 28.2095H26.0381C26.7136 28.2068 27.3607 27.9373 27.8383 27.4597C28.316 26.982 28.5855 26.335 28.5881 25.6595V2.75947C28.5855 2.08398 28.316 1.43691 27.8383 0.95926C27.3607 0.481612 26.7136 0.212106 26.0381 0.209473ZM23.5881 10.2095V26.2095H15.5881V10.2095H23.5881ZM13.5881 26.2095H5.58813V10.2095H13.5881V26.2095ZM26.5881 25.6595C26.5881 25.8053 26.5302 25.9452 26.427 26.0484C26.3239 26.1515 26.184 26.2095 26.0381 26.2095H25.5881V10.2095C25.5881 9.67904 25.3774 9.17033 25.0023 8.79526C24.6273 8.42019 24.1186 8.20947 23.5881 8.20947H5.58813C5.0577 8.20947 4.54899 8.42019 4.17392 8.79526C3.79885 9.17033 3.58813 9.67904 3.58813 10.2095V26.2095H3.13813C2.99227 26.2095 2.85237 26.1515 2.74923 26.0484C2.64608 25.9452 2.58813 25.8053 2.58813 25.6595V2.75947C2.58813 2.6136 2.64608 2.47371 2.74923 2.37056C2.85237 2.26742 2.99227 2.20947 3.13813 2.20947H26.0381C26.184 2.20947 26.3239 2.26742 26.427 2.37056C26.5302 2.47371 26.5881 2.6136 26.5881 2.75947V25.6595Z" fill="black"/>
<path d="M10.2981 3.49947C10.2051 3.40574 10.0945 3.33135 9.97265 3.28058C9.85079 3.22981 9.72009 3.20367 9.58808 3.20367C9.45606 3.20367 9.32536 3.22981 9.2035 3.28058C9.08164 3.33135 8.97104 3.40574 8.87808 3.49947L6.87808 5.49947C6.68977 5.68778 6.58398 5.94317 6.58398 6.20947C6.58398 6.47577 6.68977 6.73117 6.87808 6.91947C7.06638 7.10778 7.32177 7.21356 7.58808 7.21356C7.85438 7.21356 8.10977 7.10778 8.29808 6.91947L9.58808 5.61947L10.8781 6.91947C10.971 7.0132 11.0816 7.0876 11.2035 7.13836C11.3254 7.18913 11.4561 7.21527 11.5881 7.21527C11.7201 7.21527 11.8508 7.18913 11.9727 7.13836C12.0945 7.0876 12.2051 7.0132 12.2981 6.91947C12.3918 6.82651 12.4662 6.71591 12.517 6.59405C12.5677 6.47219 12.5939 6.34148 12.5939 6.20947C12.5939 6.07746 12.5677 5.94676 12.517 5.8249C12.4662 5.70304 12.3918 5.59244 12.2981 5.49947L10.2981 3.49947Z" fill="black"/>
<path d="M20.8781 3.49948L19.5881 4.79948L18.2981 3.49948C18.2048 3.40624 18.0941 3.33228 17.9723 3.28182C17.8505 3.23136 17.7199 3.20538 17.5881 3.20538C17.3218 3.20538 17.0664 3.31117 16.8781 3.49948C16.6898 3.68778 16.584 3.94317 16.584 4.20948C16.584 4.47578 16.6898 4.73117 16.8781 4.91948L18.8781 6.91948C18.971 7.0132 19.0816 7.0876 19.2035 7.13837C19.3254 7.18913 19.4561 7.21527 19.5881 7.21527C19.7201 7.21527 19.8508 7.18913 19.9727 7.13837C20.0945 7.0876 20.2051 7.0132 20.2981 6.91948L22.2981 4.91948C22.4864 4.73117 22.5922 4.47578 22.5922 4.20948C22.5922 3.94317 22.4864 3.68778 22.2981 3.49948C22.1098 3.31117 21.8544 3.20538 21.5881 3.20538C21.3218 3.20538 21.0664 3.31117 20.8781 3.49948Z" fill="black"/>
</svg>
