<svg width="33" height="33" viewBox="0 0 33 33" fill="none" xmlns="http://www.w3.org/2000/svg">
<path d="M28.1083 4.89015H5.10834C4.77931 4.88485 4.45251 4.94507 4.14699 5.06733C3.84147 5.18958 3.56334 5.37141 3.3288 5.60223C3.09425 5.83305 2.90799 6.10824 2.78087 6.41177C2.65374 6.71529 2.58829 7.04108 2.58834 7.37015V21.3702C2.58303 21.6992 2.64326 22.026 2.76551 22.3315C2.88776 22.637 3.0696 22.9152 3.30042 23.1497C3.53124 23.3842 3.80642 23.5705 4.10995 23.6976C4.41347 23.8247 4.73926 23.8902 5.06834 23.8902H13.5883V25.0702C11.0505 25.3493 8.56545 25.989 6.20834 26.9702C5.99718 27.0601 5.82337 27.2199 5.71609 27.4227C5.6088 27.6256 5.57456 27.8592 5.61912 28.0844C5.66368 28.3095 5.78432 28.5125 5.9608 28.6592C6.13727 28.8059 6.35885 28.8875 6.58834 28.8902C6.71951 28.8935 6.84966 28.8661 6.96834 28.8102C13.1282 26.2601 20.0485 26.2601 26.2083 28.8102C26.4462 28.8826 26.7024 28.8638 26.9272 28.7575C27.1519 28.6513 27.329 28.4651 27.4239 28.2353C27.5189 28.0055 27.5248 27.7486 27.4405 27.5147C27.3563 27.2808 27.188 27.0867 26.9683 26.9702C24.6112 25.989 22.1262 25.3493 19.5883 25.0702V23.8902H28.1083C28.7661 23.8902 29.3969 23.6289 29.862 23.1638C30.327 22.6987 30.5883 22.0679 30.5883 21.4102V7.41015C30.5936 7.08113 30.5334 6.75433 30.4112 6.44881C30.2889 6.14329 30.1071 5.86516 29.8763 5.63061C29.6454 5.39607 29.3702 5.20981 29.0667 5.08269C28.7632 4.95556 28.4374 4.89011 28.1083 4.89015ZM5.10834 6.89015H28.1083C28.1717 6.88879 28.2348 6.90027 28.2936 6.92391C28.3525 6.94755 28.4059 6.98286 28.4508 7.02771C28.4956 7.07255 28.5309 7.12601 28.5546 7.18486C28.5782 7.24372 28.5897 7.30675 28.5883 7.37015V17.8902H4.58834V7.37015C4.58697 7.30675 4.59845 7.24372 4.62209 7.18486C4.64573 7.12601 4.68104 7.07255 4.72589 7.02771C4.77073 6.98286 4.82419 6.94755 4.88305 6.92391C4.9419 6.90027 5.00493 6.88879 5.06834 6.89015H5.10834ZM17.5883 24.8902H15.5883V23.8902H17.5883V24.8902ZM28.1083 21.8902H5.10834C5.0417 21.8973 4.9743 21.8901 4.91066 21.8691C4.84702 21.8481 4.78862 21.8137 4.73937 21.7682C4.69012 21.7227 4.65117 21.6673 4.62512 21.6055C4.59907 21.5438 4.58653 21.4772 4.58834 21.4102V19.8902H28.5883V21.4102C28.5897 21.4736 28.5782 21.5366 28.5546 21.5954C28.5309 21.6543 28.4956 21.7078 28.4508 21.7526C28.4059 21.7975 28.3525 21.8328 28.2936 21.8564C28.2348 21.88 28.1717 21.8915 28.1083 21.8902Z" fill="black"/>
</svg>
