<svg width="33" height="33" viewBox="0 0 33 33" fill="none" xmlns="http://www.w3.org/2000/svg">
<path d="M28.5884 15.51V7.84996C28.5857 7.1506 28.3068 6.48063 27.8122 5.98611C27.3177 5.49158 26.6477 5.21259 25.9484 5.20996H22.1584C21.5509 4.28781 20.724 3.53091 19.7518 3.00718C18.7796 2.48345 17.6926 2.20929 16.5884 2.20929C15.4841 2.20929 14.3971 2.48345 13.425 3.00718C12.4528 3.53091 11.6259 4.28781 11.0184 5.20996H7.22838C6.52902 5.21259 5.85905 5.49158 5.36453 5.98611C4.87 6.48063 4.59101 7.1506 4.58838 7.84996V15.51C3.99286 15.7749 3.48696 16.2069 3.13199 16.7536C2.77701 17.3003 2.58818 17.9381 2.58838 18.59V29.21C2.58838 29.4752 2.69374 29.7295 2.88127 29.9171C3.06881 30.1046 3.32316 30.21 3.58838 30.21H7.58838C7.8536 30.21 8.10795 30.1046 8.29549 29.9171C8.48302 29.7295 8.58838 29.4752 8.58838 29.21V27.21H24.5884V29.21C24.5884 29.4752 24.6937 29.7295 24.8813 29.9171C25.0688 30.1046 25.3232 30.21 25.5884 30.21H29.5884C29.8536 30.21 30.108 30.1046 30.2955 29.9171C30.483 29.7295 30.5884 29.4752 30.5884 29.21V18.59C30.5886 17.9381 30.3998 17.3003 30.0448 16.7536C29.6898 16.2069 29.1839 15.7749 28.5884 15.51ZM7.58838 25.21H4.58838V23.21H28.5884V25.21H7.58838ZM7.22838 7.20996H11.5884C11.7693 7.20947 11.9467 7.15993 12.1016 7.06659C12.2566 6.97326 12.3834 6.83964 12.4684 6.67996C12.8668 5.93342 13.4606 5.30916 14.1862 4.87389C14.9119 4.43863 15.7422 4.20871 16.5884 4.20871C17.4346 4.20871 18.2649 4.43863 18.9905 4.87389C19.7162 5.30916 20.31 5.93342 20.7084 6.67996C20.7934 6.83964 20.9202 6.97326 21.0751 7.06659C21.2301 7.15993 21.4075 7.20947 21.5884 7.20996H25.9484C26.1181 7.20996 26.2809 7.27739 26.4009 7.39741C26.521 7.51743 26.5884 7.68022 26.5884 7.84996V15.21H22.5884V13.21C22.5884 12.4143 22.2723 11.6512 21.7097 11.0886C21.1471 10.526 20.384 10.21 19.5884 10.21H13.5884C12.7927 10.21 12.0297 10.526 11.4671 11.0886C10.9044 11.6512 10.5884 12.4143 10.5884 13.21V15.21H6.58838V7.84996C6.58838 7.68022 6.65581 7.51743 6.77583 7.39741C6.89585 7.27739 7.05864 7.20996 7.22838 7.20996ZM12.5884 15.21V13.21C12.5884 12.9447 12.6937 12.6904 12.8813 12.5029C13.0688 12.3153 13.3232 12.21 13.5884 12.21H19.5884C19.8536 12.21 20.108 12.3153 20.2955 12.5029C20.483 12.6904 20.5884 12.9447 20.5884 13.21V15.21H12.5884ZM5.96838 17.21H27.2184C27.5826 17.2126 27.9311 17.3592 28.1877 17.6177C28.4444 17.8762 28.5884 18.2257 28.5884 18.59V21.21H4.58838V18.59C4.58838 18.224 4.73377 17.8729 4.99257 17.6141C5.25137 17.3553 5.60238 17.21 5.96838 17.21ZM6.58838 28.21H4.58838V27.21H6.58838V28.21ZM28.5884 28.21H26.5884V27.21H28.5884V28.21Z" fill="black"/>
</svg>
