<svg width="33" height="33" viewBox="0 0 33 33" fill="none" xmlns="http://www.w3.org/2000/svg">
<path d="M27.2206 7.78418H5.97058C5.07414 7.78418 4.21443 8.14029 3.58056 8.77416C2.94668 9.40803 2.59058 10.2677 2.59058 11.1642V23.4142C2.59057 23.8576 2.67807 24.2966 2.84806 24.7061C3.01804 25.1157 3.26717 25.4876 3.58116 25.8007C3.89515 26.1137 4.26784 26.3618 4.67786 26.5305C5.08788 26.6993 5.52718 26.7855 5.97058 26.7842H27.2206C28.1144 26.7842 28.9715 26.4291 29.6035 25.7971C30.2355 25.1651 30.5906 24.308 30.5906 23.4142V11.1642C30.5919 10.7208 30.5057 10.2815 30.3369 9.87147C30.1682 9.46144 29.9201 9.08876 29.6071 8.77476C29.294 8.46077 28.9221 8.21164 28.5125 8.04166C28.103 7.87168 27.664 7.78418 27.2206 7.78418ZM5.97058 9.78418H27.2206C27.5848 9.78682 27.9333 9.93338 28.1899 10.1919C28.4466 10.4504 28.5906 10.7999 28.5906 11.1642V12.7842H4.59058V11.1642C4.59058 10.983 4.62627 10.8035 4.69562 10.6361C4.76497 10.4686 4.86662 10.3165 4.99477 10.1884C5.12291 10.0602 5.27504 9.95858 5.44247 9.88923C5.6099 9.81987 5.78935 9.78418 5.97058 9.78418ZM27.2206 24.7842H5.97058C5.6063 24.7842 5.2568 24.6402 4.99829 24.3835C4.73977 24.1269 4.59322 23.7784 4.59058 23.4142V14.7842H28.5906V23.4142C28.588 23.7767 28.4428 24.1237 28.1864 24.38C27.9301 24.6364 27.5831 24.7816 27.2206 24.7842Z" fill="black"/>
<path d="M19.5906 16.7842C18.9716 16.7859 18.3684 16.9791 17.8635 17.3371C17.3586 17.6952 16.9769 18.2006 16.7706 18.7842H11.5906C11.3254 18.7842 11.071 18.8895 10.8835 19.0771C10.6959 19.2646 10.5906 19.519 10.5906 19.7842V21.7842C10.5906 22.0494 10.6959 22.3038 10.8835 22.4913C11.071 22.6788 11.3254 22.7842 11.5906 22.7842C11.8558 22.7842 12.1101 22.6788 12.2977 22.4913C12.4852 22.3038 12.5906 22.0494 12.5906 21.7842V20.7842H13.5906V21.7842C13.5906 22.0494 13.6959 22.3038 13.8835 22.4913C14.071 22.6788 14.3254 22.7842 14.5906 22.7842C14.8558 22.7842 15.1101 22.6788 15.2977 22.4913C15.4852 22.3038 15.5906 22.0494 15.5906 21.7842V20.7842H16.7706C16.954 21.3031 17.2767 21.7615 17.7032 22.1093C18.1298 22.457 18.6438 22.6808 19.1889 22.756C19.7341 22.8312 20.2895 22.7551 20.7943 22.5358C21.2991 22.3165 21.7338 21.9626 22.0509 21.5128C22.368 21.063 22.5553 20.5346 22.5922 19.9855C22.6292 19.4364 22.5143 18.8877 22.2603 18.3995C22.0063 17.9112 21.6228 17.5023 21.152 17.2174C20.6811 16.9325 20.1409 16.7826 19.5906 16.7842ZM19.5906 20.7842C19.3928 20.7842 19.1995 20.7255 19.035 20.6157C18.8706 20.5058 18.7424 20.3496 18.6667 20.1669C18.591 19.9841 18.5712 19.7831 18.6098 19.5891C18.6484 19.3951 18.7436 19.2169 18.8835 19.0771C19.0233 18.9372 19.2015 18.842 19.3955 18.8034C19.5895 18.7648 19.7905 18.7846 19.9733 18.8603C20.156 18.936 20.3122 19.0642 20.422 19.2286C20.5319 19.3931 20.5906 19.5864 20.5906 19.7842C20.5906 20.0494 20.4852 20.3038 20.2977 20.4913C20.1101 20.6788 19.8558 20.7842 19.5906 20.7842Z" fill="black"/>
</svg>
